Paglu (2011)1080p HD EngSub Bengali Movie.mkv

GENERAL
Format : Matroska
File size : 3.58 GiB
Duration : 2h 38mn 16 Sec
Overall bit rate : 3 238 Kbps
Video
ID : 1
Format : AVC
Format/Info : Advanced Video Codec
Format profile : High@L4.0
Format settings, CABAC : Yes
Format settings, ReFrames : 1 frames
Codec ID : V_MPEG4/ISO/AVC
Bit rate : 2 499 Kbps
Width : 1 920 pixels
Height : 816 pixels
Display aspect ratio : 2:35:1
Frame rate : 23.976 fps
Color space : YUV
Chroma subsampling : 4:2:0
Bit depth : 8 bits
Scan type : Progressive
Bits/(Pixel*Frame) : 0.067
Stream size : 2.67 GiB (75%)


Audio #2
ID : 2
Format : DTS
Format/Info : Digital Theatre System
Codec ID : A_DTS
Bit rate mode : Constant
Bit rate : 755 Kbps
Channel(s) : 6 channels
Channel positions : Front: L C R, Side: L R, LFE
Sampling rate : 48.0 KHz
Bit depth : 24 bits
Compression mode : Lossy
Stream size : 854 MiB (23%)
Language : Bengali
Text #3
ID : 3
Format : VobSub
Muxing mode: S_zlib
Codec ID : S_VOBSUB
Codec ID/Info : The same su**itle format used on DVDs
Language : English